<svg width="20" height="20" viewBox="0 0 20 20" fill="none" xmlns="http://www.w3.org/2000/svg">
<path d="M4.16602 15C2.7853 15 1.66602 13.8807 1.66602 12.5V6.5C1.66602 5.09987 1.66602 4.3998 1.9385 3.86502C2.17818 3.39462 2.56063 3.01217 3.03104 2.77248C3.56582 2.5 4.26588 2.5 5.66602 2.5H14.3327C15.7328 2.5 16.4329 2.5 16.9677 2.77248C17.4381 3.01217 17.8205 3.39462 18.0602 3.86502C18.3327 4.3998 18.3327 5.09987 18.3327 6.5V12.5C18.3327 13.8807 17.2134 15 15.8327 15M7.25604 17.5H12.7427C13.1967 17.5 13.4237 17.5 13.5383 17.4074C13.6379 17.3269 13.695 17.2051 13.693 17.0771C13.6908 16.9298 13.5455 16.7554 13.2548 16.4065L10.5115 13.1146C10.3356 12.9035 10.2477 12.798 10.1424 12.7595C10.05 12.7257 9.94868 12.7257 9.85631 12.7595C9.75102 12.798 9.66308 12.9035 9.4872 13.1146L6.7439 16.4065C6.45322 16.7554 6.30789 16.9298 6.30566 17.0771C6.30373 17.2051 6.36079 17.3269 6.4604 17.4074C6.57497 17.5 6.802 17.5 7.25604 17.5Z" stroke="white" stroke-width="2" stroke-linecap="round" stroke-linejoin="round"/>
</svg>
