<svg width="24" height="24" viewBox="0 0 24 24" fill="none" xmlns="http://www.w3.org/2000/svg">
<path d="M4 13.9984L5.57465 20.297C5.61893 20.4742 5.64107 20.5627 5.66727 20.6401C5.92317 21.3956 6.60352 21.9268 7.39852 21.9918C7.4799 21.9984 7.5712 21.9984 7.75379 21.9984C7.98244 21.9984 8.09677 21.9984 8.19308 21.9891C9.145 21.8968 9.89834 21.1434 9.99066 20.1915C10 20.0952 10 19.9809 10 19.7522V5.49845M18.5 13.4984C20.433 13.4984 22 11.9314 22 9.99845C22 8.06545 20.433 6.49845 18.5 6.49845M10.25 5.49845H6.5C4.01472 5.49845 2 7.51317 2 9.99845C2 12.4837 4.01472 14.4984 6.5 14.4984H10.25C12.0164 14.4984 14.1772 15.4453 15.8443 16.3541C16.8168 16.8842 17.3031 17.1493 17.6216 17.1103C17.9169 17.0741 18.1402 16.9415 18.3133 16.6996C18.5 16.4386 18.5 15.9164 18.5 14.8722V5.12473C18.5 4.08044 18.5 3.5583 18.3133 3.29734C18.1402 3.05535 17.9169 2.92275 17.6216 2.88658C17.3031 2.84757 16.8168 3.11265 15.8443 3.6428C14.1772 4.55156 12.0164 5.49845 10.25 5.49845Z" stroke="#264653" stroke-width="2" stroke-linecap="round" stroke-linejoin="round"/>
</svg>
