<svg width="16" height="16" viewBox="0 0 16 16" fill="none" xmlns="http://www.w3.org/2000/svg">
<g clip-path="url(#clip0_1605_73647)">
<path d="M7.0581 6.11438H9.88652H7.0581ZM9.88652 6.11438V8.94281V6.11438ZM9.88652 6.11438L6.11529 9.88562L9.88652 6.11438ZM12.2435 3.75736C12.8007 4.31451 13.2427 4.97595 13.5442 5.7039C13.8457 6.43185 14.0009 7.21207 14.0009 8C14.0009 8.78793 13.8457 9.56815 13.5442 10.2961C13.2427 11.0241 12.8007 11.6855 12.2435 12.2426C11.6864 12.7998 11.025 13.2417 10.297 13.5433C9.56905 13.8448 8.78884 14 8.00091 14C7.21297 14 6.43276 13.8448 5.70481 13.5433C4.97685 13.2417 4.31542 12.7998 3.75827 12.2426C2.63305 11.1174 2.00091 9.5913 2.00091 8C2.00091 6.4087 2.63305 4.88258 3.75827 3.75736C4.88348 2.63214 6.40961 2 8.00091 2C9.59221 2 11.1183 2.63214 12.2435 3.75736Z" stroke="#E76F51" stroke-width="1.5" stroke-linecap="round" stroke-linejoin="round"/>
</g>
<defs>
<clipPath id="clip0_1605_73647">
<rect width="16" height="16" fill="white"/>
</clipPath>
</defs>
</svg>
