<svg width="129" height="30" viewBox="0 0 129 30" fill="none" xmlns="http://www.w3.org/2000/svg">
<path fill-rule="evenodd" clip-rule="evenodd" d="M38.0869 17.4414C37.5843 16.7595 36.7299 16.2029 35.6949 16.2029C33.779 16.2029 32.3967 17.6657 32.3967 19.646C32.3967 21.6263 33.779 23.0891 35.6949 23.0891C36.5896 23.0891 37.4268 22.7073 37.8649 22.3266C37.8948 22.3013 37.9109 22.2645 37.9109 22.2254V21.1513C37.9109 21.0846 37.8569 21.0294 37.789 21.0294H35.3246C35.2268 21.0294 35.1475 20.9489 35.1475 20.8523V19.2573C35.1475 19.1595 35.228 19.079 35.3246 19.079H39.7429V16.7123L38.3169 17.4944C38.241 17.5357 38.1398 17.5104 38.0892 17.4414H38.0869ZM17.3443 18.5616H19.9893C20.7426 18.5616 21.2141 18.136 21.2141 17.461C21.2141 16.817 20.7541 16.3604 19.9893 16.3604H17.3443C17.3228 16.3601 17.3014 16.3642 17.2815 16.3722C17.2615 16.3803 17.2434 16.3924 17.2282 16.4076C17.2129 16.4228 17.2009 16.4409 17.1928 16.4609C17.1847 16.4808 17.1807 16.5022 17.181 16.5238V18.3982C17.1807 18.4198 17.1847 18.4412 17.1928 18.4611C17.2009 18.4811 17.2129 18.4992 17.2282 18.5144C17.2434 18.5296 17.2615 18.5417 17.2815 18.5498C17.3014 18.5578 17.3228 18.5619 17.3443 18.5616ZM28.0451 24.737C28.0451 24.8175 27.9795 24.8831 27.899 24.8831H25.9613C25.8808 24.8831 25.8152 24.8175 25.8152 24.737V14.5423C25.8152 14.4618 25.8808 14.3962 25.9613 14.3962H27.9002C27.9807 14.3962 28.0462 14.4618 28.0462 14.5423L28.0451 24.737ZM39.1851 0.32715L19.9652 14.3939H20.4597C22.4538 14.3939 23.475 15.667 23.475 17.0665C23.475 18.1556 22.9069 18.9594 22.1444 19.3148C22.0294 19.3746 22.0225 19.554 22.1513 19.6069C23.0403 19.9714 23.6808 20.9236 23.6808 22.0357C23.6808 23.6227 22.6458 24.8819 20.6333 24.8819H15.1122C15.0906 24.8823 15.0693 24.8782 15.0493 24.8701C15.0294 24.8621 15.0112 24.85 14.996 24.8348C14.9808 24.8196 14.9688 24.8015 14.9607 24.7815C14.9526 24.7616 14.9486 24.7402 14.9489 24.7186V18.0659L0.694619 28.5021C0.422069 28.7022 0.562369 29.1346 0.901619 29.1346H39.3921C39.5853 29.1346 39.7417 28.9782 39.7417 28.7839V23.4939C38.7113 24.4553 37.3578 25.0579 35.6937 25.0579C32.6163 25.0579 30.1047 22.935 30.1047 19.6333C30.1047 16.3156 32.6175 14.2088 35.6937 14.2088C37.6292 14.2088 38.9137 15.0862 39.7417 16.1592V0.608899C39.7417 0.321399 39.4163 0.156949 39.1851 0.325999V0.32715ZM17.3432 22.9154H20.0687C20.9013 22.9154 21.4027 22.475 21.4027 21.7194C21.4027 21.0593 20.9427 20.5234 20.0687 20.5234H17.3432C17.3216 20.5231 17.3003 20.5271 17.2803 20.5352C17.2604 20.5433 17.2422 20.5554 17.227 20.5706C17.2118 20.5858 17.1998 20.6039 17.1917 20.6239C17.1836 20.6438 17.1796 20.6652 17.1799 20.6867V22.7498C17.1796 22.7714 17.1836 22.7928 17.1917 22.8127C17.1998 22.8327 17.2118 22.8508 17.227 22.866C17.2422 22.8812 17.2604 22.8933 17.2803 22.9013C17.3003 22.9094 17.3216 22.9135 17.3432 22.9131V22.9154ZM50.9002 22.5969L49.6984 21.9736C49.6601 21.9549 49.6163 21.951 49.5753 21.9626C49.5343 21.9743 49.4991 22.0008 49.4765 22.0368C48.9682 22.8338 48.0309 23.426 47.0132 23.426C45.0122 23.426 43.5287 21.8218 43.5287 19.6368C43.5287 17.4196 45.0237 15.8475 47.0132 15.8475C48.0309 15.8475 48.9682 16.4248 49.4765 17.2333C49.4994 17.2698 49.5351 17.2964 49.5765 17.3079C49.618 17.3193 49.6623 17.3149 49.7007 17.2954L50.8933 16.6456C50.9853 16.5962 51.0163 16.4846 50.96 16.3949C50.2056 15.207 48.9567 14.2122 47.0132 14.2122C44.0289 14.2122 41.7232 16.3972 41.7232 19.6368C41.7232 22.8603 44.0404 25.0613 47.0132 25.0613C48.9544 25.0613 50.1895 24.0413 50.9692 22.8533C51.0267 22.7613 50.9956 22.6486 50.9002 22.6003V22.5969ZM57.1619 23.4249C55.1149 23.4249 53.8108 21.7896 53.8108 19.6356C53.8212 17.4564 55.1264 15.8464 57.1734 15.8464C59.2055 15.8464 60.5245 17.4564 60.5245 19.6356C60.5245 21.7896 59.2055 23.4249 57.1734 23.4249H57.1619ZM55.7302 14.3974C53.4785 15 51.9927 17.0424 51.9927 19.6391C51.9927 22.7671 54.1317 25.0636 57.1631 25.0636C59.746 25.0636 61.6941 23.3823 62.2035 20.9236C63.0315 16.9389 59.5378 13.3681 55.7313 14.3859L55.7302 14.3974ZM74.9122 14.3859H72.6122C72.5622 14.3852 72.5133 14.3999 72.4721 14.4281C72.4309 14.4564 72.3995 14.4966 72.3822 14.5435L69.6015 21.7401L66.807 14.5435C66.769 14.4492 66.6782 14.3859 66.577 14.3859H64.277C64.208 14.3859 64.1539 14.4411 64.1539 14.5089V24.7497C64.1539 24.8187 64.2091 24.8727 64.277 24.8727H65.8686C65.9376 24.8727 65.9916 24.8175 65.9916 24.7497V16.7756L69.1886 24.8175C69.2024 24.852 69.2346 24.8727 69.2691 24.8727H69.9338C69.9683 24.8727 70.0028 24.8497 70.0143 24.8175L73.1964 16.7756V24.7497C73.1964 24.8187 73.2516 24.8727 73.3194 24.8727H74.9352C75.0042 24.8727 75.0582 24.8175 75.0582 24.7497V14.5089C75.0582 14.4399 75.003 14.3859 74.9352 14.3859H74.9122ZM98.4101 14.3859H91.6102C91.4952 14.3859 91.4204 14.471 91.4204 14.5757V24.6956C91.4204 24.8106 91.5055 24.8854 91.6102 24.8854H98.409C98.524 24.8854 98.5987 24.8003 98.5987 24.6956V23.4559C98.5987 23.3409 98.5136 23.2662 98.409 23.2662H93.4502C93.3352 23.2662 93.2604 23.1811 93.2604 23.0764V20.5303C93.2604 20.4153 93.3455 20.3406 93.4502 20.3406H98.3009C98.4159 20.3406 98.4906 20.2555 98.4906 20.1508V18.9111C98.4906 18.7961 98.4055 18.7214 98.3009 18.7214H93.4502C93.3352 18.7214 93.2604 18.6363 93.2604 18.5316V16.2063C93.2604 16.0913 93.3455 16.0166 93.4502 16.0166H98.4113C98.5263 16.0166 98.601 15.9315 98.601 15.8268V14.5871C98.601 14.4721 98.5159 14.3974 98.4113 14.3974L98.4101 14.3859ZM105.577 19.3389H103.248C103.133 19.3389 103.061 19.2538 103.061 19.1515V16.1914C103.061 16.0764 103.145 16.0039 103.248 16.0039H105.588C106.623 16.0039 107.379 16.6479 107.379 17.6553C107.379 18.6903 106.625 19.3378 105.588 19.3378L105.577 19.3389ZM107.02 20.6994C108.193 20.4038 109.251 19.3999 109.251 17.6714C109.251 15.7222 107.885 14.3859 105.801 14.3859H101.397C101.282 14.3859 101.209 14.4698 101.209 14.5733V24.6853C101.209 24.8003 101.293 24.8739 101.397 24.8739H102.857C102.972 24.8739 103.045 24.7888 103.045 24.6853V21.1456C103.045 21.0306 103.129 20.9581 103.232 20.9581H104.773C104.84 20.9581 104.888 20.9926 104.934 21.0501L107.135 24.7819C107.17 24.8394 107.231 24.8739 107.296 24.8739H108.987C109.134 24.8739 109.225 24.7129 109.148 24.5864L106.894 20.98C106.825 20.8696 106.889 20.7304 107.016 20.6982L107.02 20.6994ZM123.695 16.0051H128.665C128.69 16.0051 128.714 16.0003 128.736 15.991C128.759 15.9817 128.779 15.968 128.796 15.9508C128.813 15.9336 128.827 15.9132 128.836 15.8907C128.845 15.8683 128.85 15.8442 128.849 15.8199V14.5814C128.849 14.4664 128.767 14.3974 128.665 14.3974H121.857C121.809 14.3974 121.762 14.4168 121.727 14.4513C121.693 14.4858 121.673 14.5326 121.673 14.5814V24.6991C121.673 24.8141 121.756 24.8831 121.857 24.8831H128.665C128.69 24.8831 128.714 24.8783 128.736 24.869C128.759 24.8597 128.779 24.846 128.796 24.8288C128.813 24.8116 128.827 24.7912 128.836 24.7687C128.845 24.7463 128.85 24.7222 128.849 24.6979V23.4479C128.85 23.4236 128.845 23.3996 128.836 23.3771C128.827 23.3547 128.813 23.3343 128.796 23.317C128.779 23.2998 128.759 23.2862 128.736 23.2769C128.714 23.2675 128.69 23.2627 128.665 23.2627H123.709C123.66 23.2627 123.613 23.2434 123.579 23.2089C123.544 23.1743 123.525 23.1276 123.525 23.0788V20.5234C123.525 20.4084 123.608 20.3394 123.709 20.3394H128.569C128.593 20.3396 128.617 20.3349 128.64 20.3257C128.662 20.3164 128.683 20.3028 128.7 20.2856C128.717 20.2683 128.731 20.2479 128.74 20.2253C128.749 20.2028 128.754 20.1787 128.754 20.1543V18.8939C128.754 18.7789 128.671 18.7099 128.57 18.7099H123.695C123.671 18.7101 123.647 18.7054 123.624 18.6961C123.602 18.6869 123.581 18.6732 123.564 18.656C123.547 18.6388 123.533 18.6183 123.524 18.5958C123.515 18.5732 123.51 18.5491 123.51 18.5247V16.1914C123.51 16.167 123.515 16.1429 123.524 16.1204C123.533 16.0978 123.547 16.0774 123.564 16.0601C123.581 16.0429 123.602 16.0293 123.624 16.02C123.647 16.0108 123.671 16.0049 123.695 16.0051ZM119.785 22.5543L118.583 21.931C118.506 21.8908 118.409 21.9195 118.361 21.9943C117.853 22.7912 116.916 23.3835 115.898 23.3835C113.897 23.3835 112.414 21.7792 112.414 19.5942C112.414 17.377 113.909 15.805 115.898 15.805C116.916 15.805 117.853 16.3823 118.361 17.1908C118.407 17.2666 118.508 17.3057 118.586 17.2528L119.778 16.6031C119.87 16.5536 119.901 16.4398 119.845 16.3524C119.091 15.1644 117.842 14.1697 115.898 14.1697C112.914 14.1697 110.608 16.3547 110.608 19.5942C110.608 22.8177 112.925 25.0188 115.898 25.0188C117.839 25.0188 119.074 23.9987 119.854 22.8108C119.868 22.7902 119.878 22.7668 119.882 22.7422C119.886 22.7176 119.885 22.6924 119.878 22.6684C119.871 22.6444 119.86 22.622 119.844 22.6029C119.828 22.5838 119.808 22.5684 119.785 22.5578V22.5543ZM88.4902 14.3859H86.1902C86.1403 14.3852 86.0914 14.3999 86.0502 14.4281C86.009 14.4564 85.9776 14.4966 85.9602 14.5435L83.1795 21.7401L80.385 14.5435C80.3471 14.4492 80.2562 14.3859 80.155 14.3859H77.855C77.786 14.3859 77.732 14.4411 77.732 14.5089V24.7497C77.732 24.8187 77.7872 24.8727 77.855 24.8727H79.4466C79.5156 24.8727 79.5697 24.8175 79.5697 24.7497V16.7756L82.7552 24.8164C82.769 24.8509 82.8012 24.8716 82.8357 24.8716H83.5004C83.5349 24.8716 83.5694 24.8486 83.5809 24.8164L86.7629 16.7744V24.7485C86.7629 24.8175 86.8181 24.8716 86.886 24.8716H88.4764C88.5454 24.8716 88.5995 24.8164 88.5995 24.7485V14.5078C88.5995 14.4388 88.5443 14.3847 88.4764 14.3847L88.4902 14.3859Z" fill="#34313F"/>
</svg>
