<svg width="20" height="21" viewBox="0 0 20 21" fill="none" xmlns="http://www.w3.org/2000/svg">
<path d="M17.5 8.83073H2.5M13.3333 2.16406V5.4974M6.66667 2.16406V5.4974M6.5 18.8307H13.5C14.9001 18.8307 15.6002 18.8307 16.135 18.5582C16.6054 18.3186 16.9878 17.9361 17.2275 17.4657C17.5 16.9309 17.5 16.2309 17.5 14.8307V7.83073C17.5 6.4306 17.5 5.73053 17.2275 5.19575C16.9878 4.72535 16.6054 4.3429 16.135 4.10321C15.6002 3.83073 14.9001 3.83073 13.5 3.83073H6.5C5.09987 3.83073 4.3998 3.83073 3.86502 4.10321C3.39462 4.3429 3.01217 4.72535 2.77248 5.19575C2.5 5.73053 2.5 6.4306 2.5 7.83073V14.8307C2.5 16.2309 2.5 16.9309 2.77248 17.4657C3.01217 17.9361 3.39462 18.3186 3.86502 18.5582C4.3998 18.8307 5.09987 18.8307 6.5 18.8307Z" stroke="#516B75" stroke-width="1.5" stroke-linecap="round" stroke-linejoin="round"/>
</svg>
