<svg width="20" height="20" viewBox="0 0 20 20" fill="none" xmlns="http://www.w3.org/2000/svg">
<g clip-path="url(#clip0_1614_77737)">
<path d="M4.99935 8.33073L7.86128 11.1927C8.02629 11.3577 8.10879 11.4402 8.20393 11.4711C8.28761 11.4983 8.37776 11.4983 8.46144 11.4711C8.55658 11.4402 8.63908 11.3577 8.80409 11.1927L11.1946 8.80213C11.3596 8.63713 11.4421 8.55462 11.5373 8.52371C11.6209 8.49652 11.7111 8.49652 11.7948 8.52371C11.8899 8.55462 11.9724 8.63713 12.1374 8.80213L14.9993 11.6641M18.3327 9.9974C18.3327 14.5998 14.6017 18.3307 9.99935 18.3307C5.39698 18.3307 1.66602 14.5998 1.66602 9.9974C1.66602 5.39502 5.39698 1.66406 9.99935 1.66406C14.6017 1.66406 18.3327 5.39502 18.3327 9.9974Z" stroke="black" stroke-width="1.5" stroke-linecap="round" stroke-linejoin="round"/>
</g>
<defs>
<clipPath id="clip0_1614_77737">
<rect width="20" height="20" fill="white"/>
</clipPath>
</defs>
</svg>
