<svg width="20" height="20" viewBox="0 0 20 20" fill="none" xmlns="http://www.w3.org/2000/svg">
<path d="M17.0833 6.06722L9.99997 10.0024M9.99997 10.0024L2.91664 6.06722M9.99997 10.0024L10 17.9191M17.5 13.3846V6.6203C17.5 6.33477 17.5 6.192 17.4579 6.06467C17.4207 5.95202 17.3599 5.84862 17.2795 5.76138C17.1886 5.66276 17.0638 5.59343 16.8142 5.45476L10.6475 2.02883C10.4112 1.89753 10.293 1.83188 10.1679 1.80615C10.0571 1.78337 9.94288 1.78337 9.83213 1.80615C9.70698 1.83188 9.58881 1.89753 9.35248 2.02883L3.18581 5.45476C2.93621 5.59343 2.8114 5.66276 2.72053 5.76138C2.64013 5.84862 2.57929 5.95202 2.54207 6.06467C2.5 6.192 2.5 6.33477 2.5 6.6203V13.3846C2.5 13.6701 2.5 13.8129 2.54207 13.9402C2.57929 14.0528 2.64013 14.1562 2.72053 14.2435C2.8114 14.3421 2.93621 14.4114 3.18581 14.5501L9.35248 17.976C9.58881 18.1073 9.70698 18.173 9.83213 18.1987C9.94288 18.2215 10.0571 18.2215 10.1679 18.1987C10.293 18.173 10.4112 18.1073 10.6475 17.976L16.8142 14.5501C17.0638 14.4114 17.1886 14.3421 17.2795 14.2435C17.3599 14.1562 17.4207 14.0528 17.4579 13.9402C17.5 13.8129 17.5 13.6701 17.5 13.3846Z" stroke="black" stroke-width="1.5" stroke-linecap="round" stroke-linejoin="round"/>
</svg>
