<svg width="20" height="20" viewBox="0 0 20 20" fill="none" xmlns="http://www.w3.org/2000/svg">
<g clip-path="url(#clip0_1614_89560)">
<path d="M7.08268 12.2196C7.08268 13.2935 7.95324 14.1641 9.02713 14.1641H10.8327C11.9833 14.1641 12.916 13.2313 12.916 12.0807C12.916 10.9301 11.9833 9.9974 10.8327 9.9974H9.16602C8.01542 9.9974 7.08268 9.06466 7.08268 7.91406C7.08268 6.76347 8.01542 5.83073 9.16602 5.83073H10.9716C12.0455 5.83073 12.916 6.70129 12.916 7.77517M9.99935 4.58073V5.83073M9.99935 14.1641V15.4141M18.3327 9.9974C18.3327 14.5998 14.6017 18.3307 9.99935 18.3307C5.39698 18.3307 1.66602 14.5998 1.66602 9.9974C1.66602 5.39502 5.39698 1.66406 9.99935 1.66406C14.6017 1.66406 18.3327 5.39502 18.3327 9.9974Z" stroke="black" stroke-width="1.5" stroke-linecap="round" stroke-linejoin="round"/>
</g>
<defs>
<clipPath id="clip0_1614_89560">
<rect width="20" height="20" fill="white"/>
</clipPath>
</defs>
</svg>
