<svg width="20" height="20" viewBox="0 0 20 20" fill="none" xmlns="http://www.w3.org/2000/svg">
<path d="M10.0007 10.8307C10.4609 10.8307 10.834 10.4576 10.834 9.9974C10.834 9.53716 10.4609 9.16406 10.0007 9.16406C9.54041 9.16406 9.16732 9.53716 9.16732 9.9974C9.16732 10.4576 9.54041 10.8307 10.0007 10.8307Z" stroke="white" stroke-width="2" stroke-linecap="round" stroke-linejoin="round"/>
<path d="M15.834 10.8307C16.2942 10.8307 16.6673 10.4576 16.6673 9.9974C16.6673 9.53716 16.2942 9.16406 15.834 9.16406C15.3737 9.16406 15.0007 9.53716 15.0007 9.9974C15.0007 10.4576 15.3737 10.8307 15.834 10.8307Z" stroke="white" stroke-width="2" stroke-linecap="round" stroke-linejoin="round"/>
<path d="M4.16732 10.8307C4.62755 10.8307 5.00065 10.4576 5.00065 9.9974C5.00065 9.53716 4.62755 9.16406 4.16732 9.16406C3.70708 9.16406 3.33398 9.53716 3.33398 9.9974C3.33398 10.4576 3.70708 10.8307 4.16732 10.8307Z" stroke="white" stroke-width="2" stroke-linecap="round" stroke-linejoin="round"/>
</svg>
