<svg width="20" height="20" viewBox="0 0 20 20" fill="none" xmlns="http://www.w3.org/2000/svg">
<g clip-path="url(#clip0_1605_73561)">
<path d="M13.3327 13.3307C13.3327 13.3307 12.0827 11.6641 9.99935 11.6641C7.91602 11.6641 6.66602 13.3307 6.66602 13.3307M14.166 7.69739C13.8368 8.10156 13.3868 8.33073 12.916 8.33073C12.4452 8.33073 12.0077 8.10156 11.666 7.69739M8.33268 7.69739C8.00352 8.10156 7.55352 8.33073 7.08268 8.33073C6.61185 8.33073 6.17435 8.10156 5.83268 7.69739M18.3327 9.9974C18.3327 14.5998 14.6017 18.3307 9.99935 18.3307C5.39698 18.3307 1.66602 14.5998 1.66602 9.9974C1.66602 5.39502 5.39698 1.66406 9.99935 1.66406C14.6017 1.66406 18.3327 5.39502 18.3327 9.9974Z" stroke="#F86E6E" stroke-width="2" stroke-linecap="round" stroke-linejoin="round"/>
</g>
<defs>
<clipPath id="clip0_1605_73561">
<rect width="20" height="20" fill="white"/>
</clipPath>
</defs>
</svg>
