<svg width="20" height="20" viewBox="0 0 20 20" fill="none" xmlns="http://www.w3.org/2000/svg">
<path d="M16.6673 10.4141V5.66406C16.6673 4.26393 16.6673 3.56387 16.3948 3.02909C16.1552 2.55868 15.7727 2.17623 15.3023 1.93655C14.7675 1.66406 14.0674 1.66406 12.6673 1.66406H7.33398C5.93385 1.66406 5.23379 1.66406 4.69901 1.93655C4.2286 2.17623 3.84615 2.55868 3.60647 3.02909C3.33398 3.56387 3.33398 4.26393 3.33398 5.66406V14.3307C3.33398 15.7309 3.33398 16.4309 3.60647 16.9657C3.84615 17.4361 4.2286 17.8186 4.69901 18.0582C5.23379 18.3307 5.93385 18.3307 7.33398 18.3307H10.0007M11.6673 9.16406H6.66732M8.33398 12.4974H6.66732M13.334 5.83073H6.66732M12.084 15.8307L13.7507 17.4974L17.5007 13.7474" stroke="white" stroke-width="2" stroke-linecap="round" stroke-linejoin="round"/>
</svg>
