<svg width="20" height="20" viewBox="0 0 20 20" fill="none" xmlns="http://www.w3.org/2000/svg">
<path d="M11.6673 1.88867V5.33079C11.6673 5.7975 11.6673 6.03085 11.7581 6.20911C11.838 6.36592 11.9655 6.4934 12.1223 6.57329C12.3006 6.66412 12.5339 6.66412 13.0007 6.66412H16.4428M13.334 10.8307H6.66732M13.334 14.1641H6.66732M8.33398 7.4974H6.66732M11.6673 1.66406H7.33398C5.93385 1.66406 5.23379 1.66406 4.69901 1.93655C4.2286 2.17623 3.84615 2.55868 3.60647 3.02909C3.33398 3.56387 3.33398 4.26393 3.33398 5.66406V14.3307C3.33398 15.7309 3.33398 16.4309 3.60647 16.9657C3.84615 17.4361 4.2286 17.8186 4.69901 18.0582C5.23379 18.3307 5.93385 18.3307 7.33398 18.3307H12.6673C14.0674 18.3307 14.7675 18.3307 15.3023 18.0582C15.7727 17.8186 16.1552 17.4361 16.3948 16.9657C16.6673 16.4309 16.6673 15.7309 16.6673 14.3307V6.66406L11.6673 1.66406Z" stroke="black" stroke-width="1.5" stroke-linecap="round" stroke-linejoin="round"/>
</svg>
