<svg width="20" height="20" viewBox="0 0 20 20" fill="none" xmlns="http://www.w3.org/2000/svg">
<g clip-path="url(#clip0_1614_88732)">
<path d="M1.66602 9.9974H18.3327M1.66602 9.9974C1.66602 14.5998 5.39698 18.3307 9.99935 18.3307M1.66602 9.9974C1.66602 5.39502 5.39698 1.66406 9.99935 1.66406M18.3327 9.9974C18.3327 14.5998 14.6017 18.3307 9.99935 18.3307M18.3327 9.9974C18.3327 5.39502 14.6017 1.66406 9.99935 1.66406M9.99935 1.66406C12.0837 3.94602 13.2683 6.90742 13.3327 9.9974C13.2683 13.0874 12.0837 16.0488 9.99935 18.3307M9.99935 1.66406C7.91495 3.94602 6.73039 6.90742 6.66602 9.9974C6.73039 13.0874 7.91495 16.0488 9.99935 18.3307" stroke="black" stroke-width="1.5" stroke-linecap="round" stroke-linejoin="round"/>
</g>
<defs>
<clipPath id="clip0_1614_88732">
<rect width="20" height="20" fill="white"/>
</clipPath>
</defs>
</svg>
