<svg width="25" height="24" viewBox="0 0 25 24" fill="none" xmlns="http://www.w3.org/2000/svg">
<rect width="25" height="24" fill="#DFDFDF"/>
<g id="Setup - Tracking Code" clip-path="url(#clip0_46_2)">
<rect width="1440" height="900" transform="translate(-371 -591)" fill="white"/>
<g id="Frame 1000002613">
<g id="Frame 1000002614">
<g id="Frame 1000002628">
<g id="laptop">
<path id="Icon" d="M20.0295 3.28134L19.5181 4.14067L20.0295 3.28134ZM20.6345 6.89418L19.6583 6.67725L20.6345 6.89418ZM20.9063 4.37434L21.8561 4.06151V4.06151L20.9063 4.37434ZM4.97027 3.28134L5.48169 4.14067L4.97027 3.28134ZM4.36526 6.89418L3.38907 7.11111L4.36526 6.89418ZM4.0935 4.37434L3.14369 4.06151L4.0935 4.37434ZM3.77031 19.7831L4.7465 20L3.77031 19.7831ZM21.2295 19.7831L22.2056 19.5661L21.2295 19.7831ZM10.4999 17C9.9476 17 9.49988 17.4477 9.49988 18C9.49988 18.5523 9.9476 19 10.4999 19V17ZM14.4999 19C15.0522 19 15.4999 18.5523 15.4999 18C15.4999 17.4477 15.0522 17 14.4999 17V19ZM7.48905 4H17.5107V2H7.48905V4ZM19.6583 6.67725L18.5237 11.7831L20.4761 12.2169L21.6107 7.11111L19.6583 6.67725ZM19.4999 11H5.49988V13H19.4999V11ZM6.47607 11.7831L5.34144 6.67725L3.38907 7.11111L4.5237 12.2169L6.47607 11.7831ZM17.5107 4C18.2109 4 18.6707 4.00091 19.0168 4.03133C19.3547 4.06103 19.4697 4.11187 19.5181 4.14067L20.5409 2.42201C20.1166 2.16947 19.6542 2.07964 19.1919 2.03901C18.7378 1.99909 18.1746 2 17.5107 2V4ZM21.6107 7.11111C21.7547 6.46307 21.8778 5.91346 21.9373 5.46149C21.9979 5.00142 22.0106 4.53052 21.8561 4.06151L19.9565 4.68717C19.9741 4.74066 19.9988 4.86391 19.9545 5.20024C19.9091 5.54467 19.8102 5.99373 19.6583 6.67725L21.6107 7.11111ZM19.5181 4.14067C19.7253 4.26401 19.881 4.4581 19.9565 4.68717L21.8561 4.06151C21.6297 3.3743 21.1627 2.79204 20.5409 2.42201L19.5181 4.14067ZM7.48905 2C6.82521 2 6.26199 1.99909 5.80786 2.03901C5.3456 2.07964 4.88318 2.16947 4.45885 2.42201L5.48169 4.14067C5.53009 4.11187 5.64504 4.06103 5.98298 4.03133C6.32905 4.00091 6.78886 4 7.48905 4V2ZM5.34144 6.67725C5.18955 5.99373 5.09069 5.54467 5.04531 5.20024C5.001 4.86391 5.02569 4.74066 5.04331 4.68717L3.14369 4.06151C2.98921 4.53052 3.00183 5.00142 3.06245 5.46149C3.122 5.91346 3.24506 6.46307 3.38907 7.11111L5.34144 6.67725ZM4.45885 2.42201C3.8371 2.79204 3.37003 3.3743 3.14369 4.06151L5.04331 4.68717C5.11875 4.4581 5.27444 4.26401 5.48169 4.14067L4.45885 2.42201ZM4.5237 11.7831L2.79413 19.5661L4.7465 20L6.47607 12.2169L4.5237 11.7831ZM4.7465 22H20.2533V20H4.7465V22ZM22.2056 19.5661L20.4761 11.7831L18.5237 12.2169L20.2533 20L22.2056 19.5661ZM20.2533 22C21.5328 22 22.4832 20.8152 22.2056 19.5661L20.2533 20V22ZM2.79413 19.5661C2.51656 20.8152 3.467 22 4.7465 22V20H4.7465L2.79413 19.5661ZM10.4999 19H14.4999V17H10.4999V19Z" fill="#264653"/>
</g>
</g>
<rect x="-68.5" y="-37.5" width="257" height="99" rx="11.5" stroke="#D4DADD"/>
</g>
</g>
</g>
<defs>
<clipPath id="clip0_46_2">
<rect width="1440" height="900" fill="white" transform="translate(-371 -591)"/>
</clipPath>
</defs>
</svg>
