<svg width="16" height="16" viewBox="0 0 16 16" fill="none" xmlns="http://www.w3.org/2000/svg">
<g clip-path="url(#clip0_1605_73816)">
<path d="M15.8045 14.8599L11.8252 10.8806C12.9096 9.5543 13.4428 7.86196 13.3144 6.15361C13.1861 4.44526 12.406 2.85159 11.1356 1.70225C9.86516 0.552909 8.20158 -0.0641703 6.48895 -0.0213491C4.77632 0.0214721 3.14566 0.720917 1.93426 1.93231C0.72287 3.1437 0.0234252 4.77436 -0.019396 6.487C-0.0622172 8.19963 0.554862 9.86321 1.7042 11.1336C2.85354 12.404 4.44721 13.1841 6.15556 13.3125C7.86392 13.4408 9.55625 12.9077 10.8825 11.8232L14.8619 15.8026C14.9876 15.924 15.156 15.9912 15.3308 15.9897C15.5056 15.9882 15.6728 15.9181 15.7964 15.7944C15.92 15.6708 15.9901 15.5036 15.9916 15.3288C15.9932 15.154 15.926 14.9856 15.8045 14.8599ZM6.66652 11.9979C5.61169 11.9979 4.58054 11.6851 3.70348 11.0991C2.82642 10.513 2.14283 9.68009 1.73916 8.70555C1.3355 7.73101 1.22988 6.65865 1.43567 5.62409C1.64145 4.58952 2.14941 3.63921 2.89529 2.89333C3.64117 2.14745 4.59147 1.6395 5.62604 1.43371C6.6606 1.22793 7.73296 1.33354 8.7075 1.73721C9.68204 2.14088 10.515 2.82446 11.101 3.70153C11.6871 4.57859 11.9999 5.60973 11.9999 6.66457C11.9983 8.07857 11.4359 9.4342 10.436 10.4341C9.43615 11.4339 8.08052 11.9963 6.66652 11.9979Z" fill="#264653"/>
</g>
<defs>
<clipPath id="clip0_1605_73816">
<rect width="16" height="16" fill="white"/>
</clipPath>
</defs>
</svg>
