<svg width="20" height="20" viewBox="0 0 20 20" fill="none" xmlns="http://www.w3.org/2000/svg">
<path d="M8.33398 13.3307H11.6673M7.33398 18.3307H12.6673C14.0674 18.3307 14.7675 18.3307 15.3023 18.0582C15.7727 17.8186 16.1552 17.4361 16.3948 16.9657C16.6673 16.4309 16.6673 15.7309 16.6673 14.3307V5.66406C16.6673 4.26393 16.6673 3.56387 16.3948 3.02909C16.1552 2.55868 15.7727 2.17623 15.3023 1.93655C14.7675 1.66406 14.0674 1.66406 12.6673 1.66406H7.33398C5.93385 1.66406 5.23379 1.66406 4.69901 1.93655C4.2286 2.17623 3.84615 2.55868 3.60647 3.02909C3.33398 3.56387 3.33398 4.26393 3.33398 5.66406V14.3307C3.33398 15.7309 3.33398 16.4309 3.60647 16.9657C3.84615 17.4361 4.2286 17.8186 4.69901 18.0582C5.23379 18.3307 5.93385 18.3307 7.33398 18.3307ZM12.5007 7.4974C12.5007 8.87811 11.3814 9.9974 10.0007 9.9974C8.61994 9.9974 7.50065 8.87811 7.50065 7.4974C7.50065 6.11668 8.61994 4.9974 10.0007 4.9974C11.3814 4.9974 12.5007 6.11668 12.5007 7.4974Z" stroke="black" stroke-width="1.5" stroke-linecap="round" stroke-linejoin="round"/>
</svg>
