<svg width="20" height="20" viewBox="0 0 20 20" fill="none" xmlns="http://www.w3.org/2000/svg">
<g clip-path="url(#clip0_1614_81534)">
<path d="M7.49935 7.4974H7.50768M12.4993 12.4974H12.5077M13.3327 6.66406L6.66602 13.3307M18.3327 9.9974C18.3327 14.5998 14.6017 18.3307 9.99935 18.3307C5.39698 18.3307 1.66602 14.5998 1.66602 9.9974C1.66602 5.39502 5.39698 1.66406 9.99935 1.66406C14.6017 1.66406 18.3327 5.39502 18.3327 9.9974ZM7.91602 7.4974C7.91602 7.72751 7.72947 7.91406 7.49935 7.91406C7.26923 7.91406 7.08268 7.72751 7.08268 7.4974C7.08268 7.26728 7.26923 7.08073 7.49935 7.08073C7.72947 7.08073 7.91602 7.26728 7.91602 7.4974ZM12.916 12.4974C12.916 12.7275 12.7295 12.9141 12.4993 12.9141C12.2692 12.9141 12.0827 12.7275 12.0827 12.4974C12.0827 12.2673 12.2692 12.0807 12.4993 12.0807C12.7295 12.0807 12.916 12.2673 12.916 12.4974Z" stroke="white" stroke-width="2" stroke-linecap="round" stroke-linejoin="round"/>
</g>
<defs>
<clipPath id="clip0_1614_81534">
<rect width="20" height="20" fill="white"/>
</clipPath>
</defs>
</svg>
