<svg width="20" height="20" viewBox="0 0 20 20" fill="none" xmlns="http://www.w3.org/2000/svg">
<path d="M2.5 6.66406L12.5 6.66406M12.5 6.66406C12.5 8.04477 13.6193 9.16406 15 9.16406C16.3807 9.16406 17.5 8.04477 17.5 6.66406C17.5 5.28335 16.3807 4.16406 15 4.16406C13.6193 4.16406 12.5 5.28335 12.5 6.66406ZM7.5 13.3307L17.5 13.3307M7.5 13.3307C7.5 14.7114 6.38071 15.8307 5 15.8307C3.61929 15.8307 2.5 14.7114 2.5 13.3307C2.5 11.95 3.61929 10.8307 5 10.8307C6.38071 10.8307 7.5 11.95 7.5 13.3307Z" stroke="black" stroke-width="1.5" stroke-linecap="round" stroke-linejoin="round"/>
</svg>
