<svg width="20" height="20" viewBox="0 0 20 20" fill="none" xmlns="http://www.w3.org/2000/svg">
<g clip-path="url(#clip0_1605_73423)">
<path d="M9.99935 12.4974C11.3801 12.4974 12.4993 11.3781 12.4993 9.9974C12.4993 8.61668 11.3801 7.4974 9.99935 7.4974C8.61864 7.4974 7.49935 8.61668 7.49935 9.9974C7.49935 11.3781 8.61864 12.4974 9.99935 12.4974Z" stroke="black" stroke-width="1.5" stroke-linecap="round" stroke-linejoin="round"/>
<path d="M15.6054 12.2701C15.5046 12.4986 15.4745 12.7521 15.519 12.9978C15.5636 13.2436 15.6808 13.4704 15.8554 13.6489L15.9009 13.6944C16.0417 13.8351 16.1535 14.0022 16.2297 14.1861C16.306 14.3701 16.3452 14.5672 16.3452 14.7663C16.3452 14.9655 16.306 15.1626 16.2297 15.3465C16.1535 15.5305 16.0417 15.6976 15.9009 15.8383C15.7601 15.9792 15.593 16.0909 15.4091 16.1672C15.2252 16.2434 15.028 16.2827 14.8289 16.2827C14.6298 16.2827 14.4326 16.2434 14.2487 16.1672C14.0647 16.0909 13.8976 15.9792 13.7569 15.8383L13.7115 15.7929C13.5329 15.6182 13.3062 15.501 13.0604 15.4565C12.8146 15.4119 12.5612 15.442 12.3327 15.5429C12.1086 15.6389 11.9175 15.7983 11.7829 16.0016C11.6483 16.2048 11.5761 16.443 11.5751 16.6868V16.8156C11.5751 17.2174 11.4155 17.6028 11.1313 17.887C10.8472 18.1711 10.4618 18.3307 10.06 18.3307C9.65811 18.3307 9.27273 18.1711 8.98858 17.887C8.70444 17.6028 8.5448 17.2174 8.5448 16.8156V16.7474C8.53894 16.4966 8.45777 16.2535 8.31186 16.0494C8.16594 15.8454 7.96203 15.69 7.72662 15.6035C7.49813 15.5026 7.24466 15.4725 6.9989 15.5171C6.75315 15.5616 6.52638 15.6788 6.34783 15.8535L6.30238 15.8989C6.16166 16.0398 5.99456 16.1515 5.81062 16.2278C5.62669 16.304 5.42952 16.3433 5.23041 16.3433C5.0313 16.3433 4.83413 16.304 4.6502 16.2278C4.46626 16.1515 4.29916 16.0398 4.15844 15.8989C4.01757 15.7582 3.90581 15.5911 3.82956 15.4072C3.75331 15.2232 3.71407 15.0261 3.71407 14.8269C3.71407 14.6278 3.75331 14.4307 3.82956 14.2467C3.90581 14.0628 4.01757 13.8957 4.15844 13.755L4.20389 13.7095C4.37854 13.531 4.4957 13.3042 4.54026 13.0584C4.58482 12.8127 4.55474 12.5592 4.45389 12.3307C4.35786 12.1067 4.19841 11.9156 3.99516 11.781C3.79191 11.6464 3.55373 11.5741 3.30996 11.5732H3.18117C2.77932 11.5732 2.39394 11.4135 2.10979 11.1294C1.82565 10.8452 1.66602 10.4598 1.66602 10.058C1.66602 9.65616 1.82565 9.27077 2.10979 8.98663C2.39394 8.70248 2.77932 8.54285 3.18117 8.54285H3.24935C3.5001 8.53699 3.74329 8.45582 3.9473 8.3099C4.15131 8.16399 4.30671 7.96007 4.39329 7.72467C4.49413 7.49617 4.52422 7.2427 4.47966 6.99695C4.4351 6.7512 4.31794 6.52443 4.14329 6.34588L4.09783 6.30043C3.95696 6.15971 3.8452 5.99261 3.76896 5.80867C3.69271 5.62473 3.65346 5.42757 3.65346 5.22846C3.65346 5.02934 3.69271 4.83218 3.76896 4.64824C3.8452 4.46431 3.95696 4.2972 4.09783 4.15649C4.23855 4.01561 4.40565 3.90386 4.58959 3.82761C4.77353 3.75136 4.97069 3.71211 5.1698 3.71211C5.36892 3.71211 5.56608 3.75136 5.75002 3.82761C5.93395 3.90386 6.10106 4.01561 6.24177 4.15649L6.28723 4.20194C6.46577 4.37659 6.69254 4.49375 6.9383 4.53831C7.18405 4.58287 7.43752 4.55279 7.66602 4.45194H7.72662C7.95069 4.35591 8.14179 4.19645 8.27639 3.9932C8.41099 3.78995 8.48323 3.55178 8.4842 3.308V3.17921C8.4842 2.77737 8.64383 2.39199 8.92798 2.10784C9.21212 1.82369 9.59751 1.66406 9.99935 1.66406C10.4012 1.66406 10.7866 1.82369 11.0707 2.10784C11.3549 2.39199 11.5145 2.77737 11.5145 3.17921V3.2474C11.5155 3.49117 11.5877 3.72935 11.7223 3.9326C11.8569 4.13585 12.048 4.2953 12.2721 4.39134C12.5006 4.49218 12.754 4.52226 12.9998 4.4777C13.2455 4.43314 13.4723 4.31598 13.6509 4.14134L13.6963 4.09588C13.837 3.95501 14.0041 3.84325 14.1881 3.767C14.372 3.69075 14.5692 3.65151 14.7683 3.65151C14.9674 3.65151 15.1646 3.69075 15.3485 3.767C15.5324 3.84325 15.6995 3.95501 15.8403 4.09588C15.9811 4.2366 16.0929 4.4037 16.1691 4.58764C16.2454 4.77157 16.2846 4.96874 16.2846 5.16785C16.2846 5.36696 16.2454 5.56413 16.1691 5.74806C16.0929 5.932 15.9811 6.0991 15.8403 6.23982L15.7948 6.28527C15.6202 6.46382 15.503 6.69059 15.4584 6.93634C15.4139 7.1821 15.444 7.43557 15.5448 7.66406V7.72467C15.6408 7.94874 15.8003 8.13983 16.0035 8.27444C16.2068 8.40904 16.445 8.48127 16.6887 8.48224H16.8175C17.2194 8.48224 17.6048 8.64188 17.8889 8.92602C18.1731 9.21017 18.3327 9.59555 18.3327 9.9974C18.3327 10.3992 18.1731 10.7846 17.8889 11.0688C17.6048 11.3529 17.2194 11.5125 16.8175 11.5125H16.7493C16.5056 11.5135 16.2674 11.5858 16.0641 11.7204C15.8609 11.855 15.7014 12.0461 15.6054 12.2701Z" stroke="black" stroke-width="1.5" stroke-linecap="round" stroke-linejoin="round"/>
</g>
<defs>
<clipPath id="clip0_1605_73423">
<rect width="20" height="20" fill="white"/>
</clipPath>
</defs>
</svg>
