<svg width="20" height="20" viewBox="0 0 20 20" fill="none" xmlns="http://www.w3.org/2000/svg">
<path d="M4.6 2.1974L3.3 3.93073C3.04251 4.27404 2.91377 4.4457 2.91676 4.58939C2.91936 4.71443 2.97799 4.83169 3.07646 4.90879C3.18962 4.99739 3.40419 4.99739 3.83333 4.99739H16.1667C16.5958 4.99739 16.8104 4.99739 16.9235 4.90879C17.022 4.83169 17.0806 4.71443 17.0832 4.58939C17.0862 4.4457 16.9575 4.27404 16.7 3.93073L15.4 2.1974M4.6 2.1974C4.74667 2.00184 4.82 1.90406 4.91294 1.83354C4.99525 1.77108 5.08846 1.72448 5.18782 1.6961C5.3 1.66406 5.42222 1.66406 5.66667 1.66406H14.3333C14.5778 1.66406 14.7 1.66406 14.8122 1.6961C14.9115 1.72448 15.0047 1.77108 15.0871 1.83354C15.18 1.90406 15.2533 2.00184 15.4 2.1974M4.6 2.1974L3.03333 4.28628C2.83545 4.55013 2.73651 4.68205 2.66625 4.82733C2.6039 4.95624 2.55843 5.09266 2.53096 5.23319C2.5 5.39157 2.5 5.55648 2.5 5.88628L2.5 15.6641C2.5 16.5975 2.5 17.0642 2.68166 17.4207C2.84144 17.7343 3.09641 17.9893 3.41002 18.1491C3.76654 18.3307 4.23325 18.3307 5.16667 18.3307L14.8333 18.3307C15.7668 18.3307 16.2335 18.3307 16.59 18.1491C16.9036 17.9893 17.1586 17.7343 17.3183 17.4207C17.5 17.0642 17.5 16.5975 17.5 15.6641V5.88628C17.5 5.55648 17.5 5.39157 17.469 5.2332C17.4416 5.09266 17.3961 4.95625 17.3338 4.82733C17.2635 4.68205 17.1646 4.55013 16.9667 4.28628L15.4 2.1974M13.3333 8.33073C13.3333 9.21478 12.9821 10.0626 12.357 10.6878C11.7319 11.3129 10.8841 11.6641 10 11.6641C9.11594 11.6641 8.2681 11.3129 7.64298 10.6878C7.01786 10.0626 6.66667 9.21478 6.66667 8.33073" stroke="black" stroke-width="2" stroke-linecap="round" stroke-linejoin="round"/>
</svg>
