<svg width="118" height="32" viewBox="0 0 118 32" fill="none" xmlns="http://www.w3.org/2000/svg">
<g clip-path="url(#clip0_1614_87150)">
<path d="M25.4528 6.0608C25.4299 5.90185 25.2847 5.81367 25.1641 5.80407C25.0444 5.79447 22.7001 5.76042 22.7001 5.76042C22.7001 5.76042 20.7395 3.94059 20.5458 3.75546C20.3522 3.57034 19.9739 3.62622 19.8269 3.66814C19.825 3.66901 19.4587 3.7773 18.842 3.9598C18.7388 3.6402 18.5871 3.24724 18.3706 2.85254C17.6726 1.57936 16.6503 0.906098 15.4151 0.904357C15.4133 0.904357 15.4123 0.904357 15.4105 0.904357C15.3246 0.904357 15.2397 0.912215 15.1538 0.919197C15.1173 0.877283 15.0807 0.836244 15.0424 0.796071C14.5042 0.245936 13.8145 -0.0221472 12.9877 0.0014301C11.3925 0.0450918 9.80383 1.14624 8.51565 3.10228C7.60935 4.4785 6.91958 6.20753 6.72408 7.54618C4.89231 8.08845 3.61144 8.46741 3.58312 8.47617C2.65856 8.75384 2.62933 8.7809 2.50874 9.61401C2.4192 10.2436 0 28.124 0 28.124L20.2736 31.4754L29.0605 29.3875C29.0605 29.3875 25.4756 6.21975 25.4528 6.0608ZM17.827 4.26019C17.3602 4.39816 16.8293 4.55535 16.2538 4.72563C16.2419 3.95369 16.146 2.87961 15.7696 1.95136C16.9801 2.17054 17.5757 3.47952 17.827 4.26019ZM15.1931 5.03999C14.1306 5.35433 12.9712 5.69752 11.8082 6.0416C12.1353 4.84439 12.7556 3.65242 13.5176 2.87088C13.8008 2.58009 14.1973 2.25612 14.6669 2.07099C15.1081 2.95121 15.2041 4.19732 15.1931 5.03999ZM13.0196 1.01613C13.3942 1.00827 13.7094 1.08686 13.9789 1.25627C13.5477 1.47021 13.1311 1.77759 12.7401 2.1784C11.7269 3.21755 10.9503 4.83042 10.6406 6.38652C9.67496 6.67205 8.7303 6.95239 7.86056 7.20913C8.40967 4.75969 10.5575 1.08424 13.0196 1.01613Z" fill="#95BF47"/>
<path d="M25.1659 5.80886C25.0462 5.79926 22.7019 5.76522 22.7019 5.76522C22.7019 5.76522 20.7414 3.94538 20.5477 3.76026C20.4755 3.69127 20.3777 3.65547 20.2754 3.64062L20.2763 31.4785L29.0624 29.3914C29.0624 29.3914 25.4774 6.22455 25.4546 6.0656C25.4317 5.90665 25.2856 5.81846 25.1659 5.80886Z" fill="#5E8E3E"/>
<path d="M15.4033 10.1196L14.3829 13.7688C14.3829 13.7688 13.2445 13.2737 11.8952 13.3549C9.91628 13.4746 9.89526 14.6674 9.91541 14.967C10.0232 16.599 14.5153 16.9553 14.7675 20.7783C14.9658 23.7857 13.0983 25.8431 10.4078 26.0055C7.17824 26.2002 5.40039 24.3795 5.40039 24.3795L6.08469 21.5974C6.08469 21.5974 7.87439 22.8881 9.30691 22.8016C10.2425 22.7448 10.5768 22.0174 10.543 21.5031C10.4023 19.3741 6.74428 19.4999 6.51316 16.0017C6.31855 13.0581 8.34128 10.0751 12.8042 9.80614C14.5236 9.70049 15.4033 10.1196 15.4033 10.1196Z" fill="white"/>
<path d="M40.6308 17.766C39.6204 17.242 39.1011 16.8003 39.1011 16.1931C39.1011 15.4205 39.8224 14.9242 40.9488 14.9242C42.26 14.9242 43.4307 15.4482 43.4307 15.4482L44.3541 12.7442C44.3541 12.7442 43.505 12.1094 41.0059 12.1094C37.5281 12.1094 35.1177 14.0131 35.1177 16.6894C35.1177 18.2068 36.2432 19.3657 37.7446 20.1928C38.9571 20.8545 39.3902 21.324 39.3902 22.0134C39.3902 22.7305 38.784 23.31 37.6586 23.31C35.9813 23.31 34.3973 22.4819 34.3973 22.4819L33.416 25.1859C33.416 25.1859 34.8794 26.124 37.3414 26.124C40.9207 26.124 43.4897 24.4411 43.4897 21.4062C43.4887 19.7797 42.1902 18.6208 40.6308 17.766Z" fill="black"/>
<path d="M54.8918 12.0776C53.131 12.0776 51.7456 12.8779 50.6781 14.0913L50.6201 14.0636L52.1497 6.42188H48.1663L44.2988 25.8713H48.2822L49.6098 19.223C50.129 16.7122 51.4855 15.1679 52.7559 15.1679C53.6502 15.1679 53.9973 15.7473 53.9973 16.5753C53.9973 17.0993 53.9393 17.7342 53.8242 18.2582L52.3237 25.8722H56.3073L57.8654 18.0096C58.0389 17.1816 58.1547 16.1891 58.1547 15.5265C58.153 13.3742 56.9697 12.0776 54.8918 12.0776Z" fill="black"/>
<path d="M67.1572 12.0781C62.3653 12.0781 59.1914 16.2165 59.1914 20.8233C59.1914 23.775 61.0959 26.1473 64.6754 26.1473C69.38 26.1473 72.555 22.1199 72.555 17.4021C72.555 14.6713 70.8805 12.0781 67.1572 12.0781ZM65.1946 23.2241C63.8379 23.2241 63.2605 22.1207 63.2605 20.741C63.2605 18.5619 64.4443 15.003 66.6089 15.003C68.0233 15.003 68.4843 16.1618 68.4843 17.293C68.4843 19.6376 67.3021 23.2241 65.1946 23.2241Z" fill="black"/>
<path d="M82.7444 12.0781C80.0556 12.0781 78.5298 14.3404 78.5298 14.3404H78.4728L78.7038 12.299H75.1825C75.0096 13.6787 74.6913 15.7747 74.3746 17.3476L71.6035 31.279H75.587L76.683 25.651H76.7703C76.7703 25.651 77.5875 26.1473 79.1083 26.1473C83.7839 26.1473 86.8431 21.5682 86.8431 16.9327C86.8431 14.3682 85.6592 12.0781 82.7444 12.0781ZM78.9343 23.2787C77.9003 23.2787 77.2884 22.727 77.2884 22.727L77.9525 19.1682C78.4146 16.7959 79.7131 15.223 81.099 15.223C82.3113 15.223 82.6862 16.2987 82.6862 17.3199C82.6862 19.7753 81.1566 23.2787 78.9343 23.2787Z" fill="black"/>
<path d="M92.5279 6.61719C91.2585 6.61719 90.248 7.58291 90.248 8.82403C90.248 9.95521 90.9983 10.7278 92.124 10.7278H92.1816C93.4231 10.7278 94.4906 9.92746 94.5196 8.52093C94.5196 7.41745 93.7403 6.61719 92.5279 6.61719Z" fill="black"/>
<path d="M86.959 25.8725H90.9414L93.6553 12.3828H89.6428L86.959 25.8725Z" fill="black"/>
<path d="M103.785 12.3559H101.014L101.158 11.721C101.389 10.4244 102.197 9.26555 103.525 9.26555C104.233 9.26555 104.794 9.45871 104.794 9.45871L105.574 6.4793C105.574 6.4793 104.881 6.14844 103.409 6.14844C101.994 6.14844 100.581 6.53469 99.5123 7.41726C98.1556 8.52074 97.5206 10.1204 97.2034 11.721L97.0887 12.3559H95.2407L94.6633 15.2253H96.5113L94.4043 25.8742H98.3878L100.495 15.2253H103.237L103.785 12.3559Z" fill="black"/>
<path d="M113.369 12.3837C113.369 12.3837 110.878 18.3798 109.761 21.6528H109.702C109.627 20.5988 108.721 12.3837 108.721 12.3837H104.536L106.932 24.77C106.991 25.0454 106.961 25.2117 106.846 25.4048C106.383 26.2597 105.604 27.0877 104.68 27.6949C103.93 28.2188 103.093 28.5497 102.43 28.7705L103.526 31.9986C104.335 31.8331 106.008 31.1983 107.422 29.9294C109.241 28.302 110.915 25.7911 112.646 22.37L117.524 12.3828H113.369V12.3837Z" fill="black"/>
</g>
<defs>
<clipPath id="clip0_1614_87150">
<rect width="118" height="32" fill="white"/>
</clipPath>
</defs>
</svg>
