<svg width="20" height="20" viewBox="0 0 20 20" fill="none" xmlns="http://www.w3.org/2000/svg">
<path d="M6.66602 6.66406H6.67435M1.66602 4.33073L1.66602 8.05949C1.66602 8.46714 1.66602 8.67097 1.71207 8.86278C1.75289 9.03284 1.82023 9.19542 1.91162 9.34454C2.01468 9.51273 2.15881 9.65686 2.44706 9.94511L8.83759 16.3356C9.82763 17.3257 10.3226 17.8207 10.8935 18.0062C11.3956 18.1693 11.9364 18.1693 12.4386 18.0062C13.0094 17.8207 13.5044 17.3257 14.4944 16.3356L16.3376 14.4925C17.3276 13.5024 17.8226 13.0074 18.0081 12.4366C18.1713 11.9345 18.1713 11.3936 18.0081 10.8915C17.8226 10.3207 17.3276 9.82568 16.3376 8.83563L9.94706 2.44511C9.65881 2.15686 9.51468 2.01273 9.34649 1.90966C9.19737 1.81828 9.03479 1.75094 8.86473 1.71011C8.67292 1.66406 8.4691 1.66406 8.06144 1.66406L4.33268 1.66406C3.39926 1.66406 2.93255 1.66406 2.57603 1.84572C2.26243 2.00551 2.00746 2.26048 1.84767 2.57408C1.66602 2.9306 1.66602 3.39731 1.66602 4.33073ZM7.08268 6.66406C7.08268 6.89418 6.89613 7.08073 6.66602 7.08073C6.4359 7.08073 6.24935 6.89418 6.24935 6.66406C6.24935 6.43394 6.4359 6.2474 6.66602 6.2474C6.89613 6.2474 7.08268 6.43394 7.08268 6.66406Z" stroke="black" stroke-width="1.5" stroke-linecap="round" stroke-linejoin="round"/>
</svg>
