<svg width="20" height="20" viewBox="0 0 20 20" fill="none" xmlns="http://www.w3.org/2000/svg">
<path d="M14.1675 1.66406V10.8307M18.3342 8.16406V4.33073C18.3342 3.39731 18.3342 2.9306 18.1525 2.57408C17.9927 2.26047 17.7378 2.00551 17.4242 1.84572C17.0677 1.66406 16.6009 1.66406 15.6675 1.66406H6.76587C5.54797 1.66406 4.93901 1.66406 4.44718 1.88692C4.01369 2.08334 3.64527 2.39941 3.38522 2.79799C3.09017 3.25022 2.99757 3.85209 2.81238 5.05583L2.37648 7.88917C2.13223 9.47682 2.0101 10.2707 2.24569 10.8883C2.45248 11.4305 2.8414 11.8838 3.34579 12.1706C3.92047 12.4974 4.72364 12.4974 6.32997 12.4974H7.00086C7.46757 12.4974 7.70092 12.4974 7.87918 12.5882C8.03599 12.6681 8.16347 12.7956 8.24336 12.9524C8.33419 13.1307 8.33419 13.364 8.33419 13.8307V16.2759C8.33419 17.4107 9.25419 18.3307 10.3891 18.3307C10.6597 18.3307 10.905 18.1713 11.015 17.924L13.8156 11.6225C13.943 11.3359 14.0067 11.1926 14.1074 11.0876C14.1963 10.9947 14.3056 10.9236 14.4266 10.8801C14.5636 10.8307 14.7204 10.8307 15.034 10.8307H15.6675C16.6009 10.8307 17.0677 10.8307 17.4242 10.6491C17.7378 10.4893 17.9927 10.2343 18.1525 9.92071C18.3342 9.56419 18.3342 9.09748 18.3342 8.16406Z" stroke="white" stroke-width="2" stroke-linecap="round" stroke-linejoin="round"/>
</svg>
