<svg width="20" height="20" viewBox="0 0 20 20" fill="none" xmlns="http://www.w3.org/2000/svg">
<path d="M5.83268 18.3307V9.16406M1.66602 10.8307V16.6641C1.66602 17.5845 2.41221 18.3307 3.33268 18.3307H14.5212C15.7551 18.3307 16.8045 17.4305 16.9921 16.2109L17.8896 10.3775C18.1226 8.86314 16.9509 7.4974 15.4187 7.4974H12.4993C12.0391 7.4974 11.666 7.1243 11.666 6.66406V3.71893C11.666 2.58406 10.746 1.66406 9.61115 1.66406C9.34046 1.66406 9.09517 1.82348 8.98523 2.07083L6.05263 8.66918C5.91888 8.97012 5.62045 9.16406 5.29112 9.16406H3.33268C2.41221 9.16406 1.66602 9.91026 1.66602 10.8307Z" stroke="white" stroke-width="2" stroke-linecap="round" stroke-linejoin="round"/>
</svg>
