<svg width="172" height="31" viewBox="0 0 172 31" fill="none" xmlns="http://www.w3.org/2000/svg">
<path d="M53.8792 7.0625L57.6087 19.8381L61.4969 7.0625H66.1522L60.2273 24.1495H55.334L53.5882 19.1239L52.0805 13.4371L50.5729 19.1239L48.8271 24.1495H43.9338L37.9824 7.0625H42.6642L46.5524 19.8381L50.229 7.0625H53.8792Z" fill="#264653"/>
<path d="M73.2685 17.082C73.533 19.1716 75.3581 20.7057 78.347 20.7057C79.9075 20.7057 81.9178 20.1238 82.8965 19.1187L85.5944 21.7637C83.7958 23.6153 80.8862 24.5146 78.2941 24.5146C72.4485 24.5146 68.957 20.8909 68.957 15.4421C68.957 10.2842 72.475 6.55469 77.9767 6.55469C83.6635 6.55469 87.2079 10.0726 86.5466 17.0555H73.2685V17.082ZM82.4997 13.617C82.2352 11.4216 80.4895 10.3107 78.0825 10.3107C75.8077 10.3107 73.9562 11.4216 73.3214 13.617H82.4997Z" fill="#264653"/>
<path d="M93.9791 0V9.41639C94.9842 7.67065 97.7615 6.69199 99.5601 6.69199C104.533 6.69199 108.209 9.73379 108.209 15.5794C108.209 21.1604 104.453 24.4667 99.4543 24.4667C97.3912 24.4667 95.2752 23.779 93.9791 21.7423L93.7146 24.0964H89.7734V0H93.9791ZM94.27 15.5794C94.27 18.6476 96.5448 20.5785 99.1898 20.5785C101.888 20.5785 104.004 18.5418 104.004 15.5794C104.004 12.5111 101.861 10.6067 99.1898 10.6067C96.5448 10.6067 94.27 12.6169 94.27 15.5794Z" fill="#264653"/>
<path d="M114.901 17.082C115.166 19.1716 116.991 20.7057 119.98 20.7057C121.54 20.7057 123.551 20.1238 124.529 19.1187L127.227 21.7637C125.429 23.6153 122.519 24.5146 119.927 24.5146C114.081 24.5146 110.59 20.8909 110.59 15.4421C110.59 10.2842 114.108 6.55469 119.609 6.55469C125.296 6.55469 128.841 10.0726 128.179 17.0555H114.901V17.082ZM124.133 13.617C123.868 11.4216 122.122 10.3107 119.715 10.3107C117.441 10.3107 115.589 11.4216 114.954 13.617H124.133Z" fill="#264653"/>
<path d="M135.294 7.11372L135.611 9.07106C136.934 6.98147 138.679 6.66406 140.399 6.66406C142.144 6.66406 143.837 7.35178 144.763 8.27755L142.858 11.9277C141.986 11.2136 141.192 10.8168 139.817 10.8168C137.621 10.8168 135.585 11.9806 135.585 15.1282V24.095H131.379V7.11372H135.294Z" fill="#264653"/>
<path d="M150.529 0V24.0964H146.35V0H150.529Z" fill="#264653"/>
<path d="M171.108 15.6031C171.108 20.4965 167.775 24.464 162.247 24.464C156.718 24.464 153.412 20.4965 153.412 15.6031C153.412 10.7362 156.798 6.74219 162.194 6.74219C167.59 6.74219 171.108 10.7627 171.108 15.6031ZM157.618 15.6031C157.618 18.1953 159.178 20.6023 162.247 20.6023C165.315 20.6023 166.875 18.1953 166.875 15.6031C166.875 13.0639 165.077 10.5775 162.247 10.5775C159.205 10.5775 157.618 13.0639 157.618 15.6031Z" fill="#264653"/>
<path d="M3.54437 27.7475C1.58703 27.7475 0 26.1605 0 24.2032V10.5547C3.94113 10.5547 7.11519 13.7288 7.11519 17.6699V24.2032C7.08874 26.1605 5.50171 27.7475 3.54437 27.7475Z" fill="#E76F51"/>
<path d="M15.3139 31.0021C13.3566 31.0021 11.7695 29.4151 11.7695 27.4577V10.3178C11.7695 8.36047 13.3566 6.77344 15.3139 6.77344C17.2712 6.77344 18.8583 8.36047 18.8583 10.3178V27.4577C18.8847 29.4151 17.2712 31.0021 15.3139 31.0021Z" fill="#F2D47D"/>
<path d="M27.2436 25.818C25.2862 25.818 23.6992 24.231 23.6992 22.2737V7.30269C23.6992 3.36156 26.8733 0.1875 30.8144 0.1875V22.2737C30.8144 24.231 29.2009 25.818 27.2436 25.818Z" fill="#2A9D8F"/>
</svg>
