<svg width="17" height="16" viewBox="0 0 17 16" fill="none" xmlns="http://www.w3.org/2000/svg">
<g clip-path="url(#clip0_1605_73806)">
<path d="M16.2049 14.8599L12.2256 10.8806C13.31 9.5543 13.8432 7.86196 13.7148 6.15361C13.5865 4.44526 12.8064 2.85159 11.536 1.70225C10.2655 0.552909 8.60197 -0.0641703 6.88934 -0.0213491C5.17671 0.0214721 3.54605 0.720917 2.33465 1.93231C1.12326 3.1437 0.423816 4.77436 0.380995 6.487C0.338173 8.19963 0.955252 9.86321 2.10459 11.1336C3.25393 12.404 4.8476 13.1841 6.55595 13.3125C8.26431 13.4408 9.95664 12.9077 11.2829 11.8232L15.2622 15.8026C15.388 15.924 15.5564 15.9912 15.7312 15.9897C15.906 15.9882 16.0732 15.9181 16.1968 15.7944C16.3204 15.6708 16.3905 15.5036 16.392 15.3288C16.3935 15.154 16.3264 14.9856 16.2049 14.8599ZM7.06691 11.9979C6.01208 11.9979 4.98093 11.6851 4.10387 11.0991C3.22681 10.513 2.54322 9.68009 2.13955 8.70555C1.73589 7.73101 1.63027 6.65865 1.83606 5.62409C2.04184 4.58952 2.5498 3.63921 3.29568 2.89333C4.04156 2.14745 4.99186 1.6395 6.02643 1.43371C7.061 1.22793 8.13335 1.33354 9.10789 1.73721C10.0824 2.14088 10.9154 2.82446 11.5014 3.70153C12.0875 4.57859 12.4002 5.60973 12.4002 6.66457C12.3987 8.07857 11.8362 9.4342 10.8364 10.4341C9.83654 11.4339 8.48091 11.9963 7.06691 11.9979Z" fill="#264653"/>
<path d="M9.06706 6H7.73372V4.66667C7.73372 4.48986 7.66349 4.32029 7.53846 4.19526C7.41344 4.07024 7.24387 4 7.06706 4C6.89025 4 6.72068 4.07024 6.59565 4.19526C6.47063 4.32029 6.40039 4.48986 6.40039 4.66667V6H5.06706C4.89025 6 4.72068 6.07024 4.59565 6.19526C4.47063 6.32029 4.40039 6.48986 4.40039 6.66667C4.40039 6.84348 4.47063 7.01305 4.59565 7.13807C4.72068 7.2631 4.89025 7.33333 5.06706 7.33333H6.40039V8.66667C6.40039 8.84348 6.47063 9.01305 6.59565 9.13807C6.72068 9.2631 6.89025 9.33333 7.06706 9.33333C7.24387 9.33333 7.41344 9.2631 7.53846 9.13807C7.66349 9.01305 7.73372 8.84348 7.73372 8.66667V7.33333H9.06706C9.24387 7.33333 9.41344 7.2631 9.53846 7.13807C9.66349 7.01305 9.73372 6.84348 9.73372 6.66667C9.73372 6.48986 9.66349 6.32029 9.53846 6.19526C9.41344 6.07024 9.24387 6 9.06706 6Z" fill="#264653"/>
</g>
<defs>
<clipPath id="clip0_1605_73806">
<rect width="16" height="16" fill="white" transform="translate(0.400391)"/>
</clipPath>
</defs>
</svg>
