<svg width="17" height="16" viewBox="0 0 17 16" fill="none" xmlns="http://www.w3.org/2000/svg">
<g clip-path="url(#clip0_1605_73811)">
<path d="M16.6053 14.8599L12.626 10.8806C13.7104 9.5543 14.2436 7.86196 14.1152 6.15361C13.9868 4.44526 13.2068 2.85159 11.9364 1.70225C10.6659 0.552909 9.00236 -0.0641703 7.28973 -0.0213491C5.5771 0.0214721 3.94644 0.720917 2.73504 1.93231C1.52365 3.1437 0.824206 4.77436 0.781385 6.487C0.738564 8.19963 1.35564 9.86321 2.50498 11.1336C3.65432 12.404 5.24799 13.1841 6.95634 13.3125C8.6647 13.4408 10.357 12.9077 11.6833 11.8232L15.6626 15.8026C15.7884 15.924 15.9568 15.9912 16.1316 15.9897C16.3064 15.9882 16.4736 15.9181 16.5972 15.7944C16.7208 15.6708 16.7909 15.5036 16.7924 15.3288C16.7939 15.154 16.7267 14.9856 16.6053 14.8599ZM7.4673 11.9979C6.41247 11.9979 5.38132 11.6851 4.50426 11.0991C3.6272 10.513 2.94361 9.68009 2.53994 8.70555C2.13628 7.73101 2.03066 6.65865 2.23645 5.62409C2.44224 4.58952 2.95019 3.63921 3.69607 2.89333C4.44195 2.14745 5.39226 1.6395 6.42682 1.43371C7.46139 1.22793 8.53374 1.33354 9.50828 1.73721C10.4828 2.14088 11.3158 2.82446 11.9018 3.70153C12.4878 4.57859 12.8006 5.60973 12.8006 6.66457C12.799 8.07857 12.2366 9.4342 11.2368 10.4341C10.2369 11.4339 8.8813 11.9963 7.4673 11.9979Z" fill="#264653"/>
<path d="M9.46745 6H5.46745C5.29064 6 5.12107 6.07024 4.99604 6.19526C4.87102 6.32029 4.80078 6.48986 4.80078 6.66667C4.80078 6.84348 4.87102 7.01305 4.99604 7.13807C5.12107 7.2631 5.29064 7.33333 5.46745 7.33333H9.46745C9.64426 7.33333 9.81383 7.2631 9.93885 7.13807C10.0639 7.01305 10.1341 6.84348 10.1341 6.66667C10.1341 6.48986 10.0639 6.32029 9.93885 6.19526C9.81383 6.07024 9.64426 6 9.46745 6Z" fill="#264653"/>
</g>
<defs>
<clipPath id="clip0_1605_73811">
<rect width="16" height="16" fill="white" transform="translate(0.800781)"/>
</clipPath>
</defs>
</svg>
